<svg xmlns="http://www.w3.org/2000/svg" data-name="Layer 1" viewBox="0 0 100 100">
  <path fill="#858585" d="M52.95 75.7c0-12.33 9.99-22.32 22.32-22.32s22.32 9.99 22.32 22.32-9.99 22.32-22.32 22.32-22.32-9.99-22.32-22.32Z"/>
  <path fill="#ccc" d="M52.95 24.42c0-12.33 9.99-22.32 22.32-22.32s22.32 9.99 22.32 22.32v20.09c0 1.23-1 2.23-2.23 2.23H55.19c-1.23 0-2.23-1-2.23-2.23V24.42Z"/>
  <path fill="#4e4e4e" d="M46.06 75.7c0 12.33-9.99 22.32-22.32 22.32S1.42 88.03 1.42 75.7V55.61c0-1.23 1-2.23 2.23-2.23h40.17c1.23 0 2.23 1 2.23 2.23V75.7Z"/>
  <rect width="44.63" height="44.63" x="1.42" y="2.11" fill="#3978bd" rx="6" ry="6"/>
  <path fill="#fff" fill-rule="evenodd" d="M27.32 36.79v4.89c.79.41 1.73.71 2.81.92 1.08.2 2.22.31 3.42.31s2.28-.11 3.33-.34c1.05-.22 1.97-.59 2.77-1.11.79-.51 1.42-1.19 1.88-2.02.46-.83.69-1.86.69-3.08 0-.89-.13-1.66-.4-2.33-.26-.67-.65-1.26-1.14-1.78-.5-.52-1.09-.99-1.79-1.4-.7-.41-1.48-.8-2.35-1.17-.64-.26-1.21-.52-1.72-.77s-.94-.5-1.3-.76c-.36-.26-.63-.53-.82-.83-.19-.29-.29-.62-.29-.99 0-.34.09-.64.26-.91s.42-.5.73-.7c.31-.19.7-.34 1.16-.45.46-.11.97-.16 1.52-.16.41 0 .84.03 1.29.09.45.06.91.16 1.36.28.46.13.9.29 1.33.48.43.19.83.42 1.2.67v-4.57c-.74-.29-1.55-.5-2.43-.63s-1.89-.21-3.02-.21-2.26.12-3.29.37c-1.04.25-1.95.64-2.74 1.17-.79.53-1.41 1.2-1.87 2.03-.46.82-.69 1.8-.69 2.94 0 1.46.42 2.7 1.26 3.73.84 1.03 2.11 1.9 3.82 2.61.67.28 1.3.55 1.87.81.58.26 1.08.54 1.5.83s.75.6 1 .93c.24.34.37.72.37 1.15 0 .32-.08.61-.23.88s-.38.5-.69.7c-.31.2-.7.35-1.16.47-.46.11-1 .17-1.62.17-1.06 0-2.1-.19-3.14-.56-1.04-.37-2-.93-2.88-1.67ZM19.1 24.62h6.38v-4.03H7.7v4.03h6.35v17.94h5.05V24.62Z"/>
</svg>